# xmcd CD database file generated by Grip 3.2.0
# 
# Track frame offsets:
#       150
#       17922
#       39487
#       63012
#       78425
#       90825
#       109487
#       133295
#       147572
#       175557
#       195657
#       216505
#       233035
# 
# Disc length: 3477 seconds
# 
# Revision: 3
# Processed by: cddbd v1.5.1PL2 Copyright (c) Steve Scherf et al.
# Submitted via: Grip 3.2.0
# 
DISCID=b30d930d
DTITLE=The Church - Gold Afternoon Fix
DYEAR=1990
DGENRE=Rock
TTITLE0=Pharaoh
TTITLE1=Metropolis
TTITLE2=Terra Nova Cain
TTITLE3=City
TTITLE4=Monday Morning
TTITLE5=Russian Autumn Heart
TTITLE6=Essence
TTITLE7=You're Still Beautiful
TTITLE8=Disappointment
TTITLE9=Transient
TTITLE10=Laughing
TTITLE11=Fading Away
TTITLE12=Grind
EXTD=
EXTT0=
EXTT1=
EXTT2=
EXTT3=
EXTT4=
EXTT5=
EXTT6=
EXTT7=
EXTT8=
EXTT9=
EXTT10=
EXTT11=
EXTT12=
PLAYORDER=
